<svg width="107" height="48" viewBox="0 0 107 48" fill="none" xmlns="http://www.w3.org/2000/svg">
<path d="M106.292 34.5652C106.822 34.402 107.118 33.8405 106.955 33.311C106.792 32.7816 106.231 32.4847 105.701 32.6479L105.997 33.6065L106.292 34.5652ZM3.96967 0.0451008C3.44041 -0.118719 2.87856 0.177532 2.71474 0.706795L0.0451414 9.33164C-0.118678 9.8609 0.177572 10.4228 0.706836 10.5866C1.2361 10.7504 1.79795 10.4541 1.96177 9.92488L4.33475 2.25835L12.0013 4.63133C12.5305 4.79515 13.0924 4.4989 13.2562 3.96963C13.42 3.44037 13.1238 2.87851 12.5945 2.7147L3.96967 0.0451008ZM13.3671 19.3888L14.2545 18.9209L13.3671 19.3888ZM105.997 33.6065L105.701 32.6479L72.2144 42.9691L72.5099 43.9278L72.8053 44.8864L106.292 34.5652L105.997 33.6065ZM13.3671 19.3888L14.2545 18.9209L4.56043 0.535528L3.67305 1.00342L2.78568 1.47131L12.4798 19.8566L13.3671 19.3888ZM72.5099 43.9278L72.2144 42.9691C49.6253 49.9315 25.2793 39.83 14.2545 18.9209L13.3671 19.3888L12.4798 19.8566C23.9546 41.6192 49.2943 52.133 72.8053 44.8864L72.5099 43.9278Z" fill="#D0FEB3"/>
</svg>
