<svg width="125" height="49" viewBox="0 0 125 49" fill="none" xmlns="http://www.w3.org/2000/svg">
<path d="M1 0C0.447715 0 0 0.447715 0 1C0 1.55228 0.447715 2 1 2V1V0ZM116.793 48.7071C117.183 49.0976 117.817 49.0976 118.207 48.7071L124.571 42.3431C124.962 41.9526 124.962 41.3195 124.571 40.9289C124.181 40.5384 123.547 40.5384 123.157 40.9289L117.5 46.5858L111.843 40.9289C111.453 40.5384 110.819 40.5384 110.429 40.9289C110.038 41.3195 110.038 41.9526 110.429 42.3431L116.793 48.7071ZM1 1V2H102.5V1V0H1V1ZM117.5 16H116.5V48H117.5H118.5V16H117.5ZM102.5 1V2C110.232 2 116.5 8.26801 116.5 16H117.5H118.5C118.5 7.16344 111.337 0 102.5 0V1Z" fill="#D0FEB3"/>
</svg>
