<svg width="107" height="48" viewBox="0 0 107 48" fill="none" xmlns="http://www.w3.org/2000/svg">
<path d="M106.292 34.5652C106.822 34.402 107.118 33.8405 106.955 33.311C106.792 32.7816 106.231 32.4847 105.701 32.6479L105.997 33.6065L106.292 34.5652ZM3.96966 0.0451008C3.44039 -0.118719 2.87854 0.177532 2.71472 0.706795L0.0451261 9.33164C-0.118694 9.8609 0.177557 10.4228 0.70682 10.5866C1.23608 10.7504 1.79794 10.4541 1.96176 9.92488L4.33473 2.25835L12.0013 4.63133C12.5305 4.79515 13.0924 4.4989 13.2562 3.96963C13.42 3.44037 13.1238 2.87851 12.5945 2.7147L3.96966 0.0451008ZM13.3671 19.3888L14.2545 18.9209L13.3671 19.3888ZM105.997 33.6065L105.701 32.6479L72.2144 42.9691L72.5098 43.9278L72.8053 44.8864L106.292 34.5652L105.997 33.6065ZM13.3671 19.3888L14.2545 18.9209L4.56041 0.535528L3.67304 1.00342L2.78566 1.47131L12.4797 19.8566L13.3671 19.3888ZM72.5098 43.9278L72.2144 42.9691C49.6253 49.9315 25.2793 39.83 14.2545 18.9209L13.3671 19.3888L12.4797 19.8566C23.9546 41.6192 49.2943 52.133 72.8053 44.8864L72.5098 43.9278Z" fill="#D0FEB3"/>
</svg>
