<svg width="25" height="25" viewBox="0 0 25 25" fill="none" xmlns="http://www.w3.org/2000/svg">
<path d="M1.02041 12.5L3.57143 9.94898M3.57143 9.94898L12.5 1.02041L21.4286 9.94898M3.57143 9.94898V22.7041C3.57143 23.0424 3.70581 23.3668 3.94502 23.606C4.18422 23.8452 4.50865 23.9796 4.84694 23.9796H8.67347M21.4286 9.94898L23.9796 12.5M21.4286 9.94898V22.7041C21.4286 23.0424 21.2942 23.3668 21.055 23.606C20.8158 23.8452 20.4913 23.9796 20.1531 23.9796H16.3265M8.67347 23.9796C9.01176 23.9796 9.33619 23.8452 9.57539 23.606C9.8146 23.3668 9.94898 23.0424 9.94898 22.7041V17.602C9.94898 17.2638 10.0834 16.9393 10.3226 16.7001C10.5618 16.4609 10.8862 16.3265 11.2245 16.3265H13.7755C14.1138 16.3265 14.4382 16.4609 14.6774 16.7001C14.9166 16.9393 15.051 17.2638 15.051 17.602V22.7041C15.051 23.0424 15.1854 23.3668 15.4246 23.606C15.6638 23.8452 15.9882 23.9796 16.3265 23.9796M8.67347 23.9796H16.3265" stroke="#3BB77E" stroke-width="2" stroke-linecap="round" stroke-linejoin="round"/>
</svg>
