<svg width="25" height="22" viewBox="0 0 25 22" fill="none" xmlns="http://www.w3.org/2000/svg">
<path d="M21 21H3.5C2.83696 21 2.20107 20.7366 1.73223 20.2678C1.26339 19.7989 1 19.163 1 18.5V3.5C1 2.83696 1.26339 2.20107 1.73223 1.73223C2.20107 1.26339 2.83696 1 3.5 1H16C16.663 1 17.2989 1.26339 17.7678 1.73223C18.2366 2.20107 18.5 2.83696 18.5 3.5V4.75M21 21C20.337 21 19.7011 20.7366 19.2322 20.2678C18.7634 19.7989 18.5 19.163 18.5 18.5V4.75M21 21C21.663 21 22.2989 20.7366 22.7678 20.2678C23.2366 19.7989 23.5 19.163 23.5 18.5V7.25C23.5 6.58696 23.2366 5.95107 22.7678 5.48223C22.2989 5.01339 21.663 4.75 21 4.75H18.5M13.5 1H8.5M6 16H13.5M6 6H13.5V11H6V6Z" stroke="#1E1E1E" stroke-opacity="0.5" stroke-width="2" stroke-linecap="round" stroke-linejoin="round"/>
</svg>
